<?xml version="1.0" standalone="no"?>
<!DOCTYPE svg PUBLIC "-//W3C//DTD SVG 20010904//EN"
 "http://www.w3.org/TR/2001/REC-SVG-20010904/DTD/svg10.dtd">
<svg version="1.0" xmlns="http://www.w3.org/2000/svg"
 width="501.000000pt" height="80.000000pt" viewBox="0 0 501.000000 80.000000"
 preserveAspectRatio="xMidYMid meet">

<g transform="translate(0.000000,80.000000) scale(0.100000,-0.100000)"
fill="yellow" stroke="none">
<path d="M0 400 l0 -400 2505 0 2505 0 0 400 0 400 -2505 0 -2505 0 0 -400z
m1413 188 c49 -26 64 -79 46 -167 -22 -112 -77 -166 -161 -157 l-47 5 -7 -45
c-9 -63 -36 -94 -83 -94 -42 0 -61 14 -61 46 0 35 68 223 105 289 61 109 143
158 208 123z m1430 1 c12 -7 24 -13 26 -15 2 -2 -7 -24 -19 -49 -17 -35 -29
-47 -50 -52 -27 -5 -32 -15 -75 -143 -61 -178 -75 -202 -118 -198 -24 2 -33 8
-35 25 -3 19 46 234 63 275 5 12 1 17 -17 20 -18 2 -24 10 -26 34 -2 25 3 36
25 52 30 21 109 49 158 55 17 2 34 5 38 6 5 0 18 -4 30 -10z m331 -2 c16 -12
15 -16 -9 -80 -14 -38 -41 -127 -60 -200 -38 -143 -63 -181 -115 -175 -35 4
-36 32 -6 118 l25 72 -27 -7 c-40 -10 -48 -19 -72 -88 -30 -81 -46 -99 -84
-95 -30 3 -31 4 -30 53 1 31 22 110 53 205 58 171 77 200 137 200 43 0 44 -15
8 -105 -15 -36 -24 -68 -22 -71 3 -2 19 -1 36 2 29 6 33 12 55 83 17 58 29 79
47 88 32 16 42 16 64 0z m-2649 -36 c54 -39 75 -70 82 -118 15 -117 -96 -273
-195 -273 -16 0 -35 -7 -42 -15 -18 -21 -56 -19 -81 6 -19 19 -21 29 -15 85 4
35 21 103 38 151 17 49 36 108 42 133 19 77 90 90 171 31z m395 19 c26 -26 26
-100 1 -155 -17 -38 -74 -98 -102 -107 -8 -3 0 -22 24 -57 57 -82 48 -109 -28
-94 -35 7 -43 15 -63 56 -12 26 -27 45 -32 42 -5 -3 -16 -27 -23 -53 -11 -35
-21 -49 -40 -56 -37 -13 -77 6 -77 38 0 59 96 298 144 359 35 45 161 62 196
27z m223 6 c6 -16 -115 -390 -134 -412 -13 -16 -95 -19 -104 -4 -8 13 78 276
112 343 13 26 30 47 38 47 8 0 19 9 25 20 12 23 55 27 63 6z m805 -19 c42 -39
24 -135 -29 -157 -37 -16 -59 -7 -59 24 0 83 -110 -13 -126 -109 -8 -55 12
-73 64 -59 53 14 69 8 75 -29 6 -41 3 -45 -47 -68 -81 -37 -166 -16 -193 48
-32 77 4 213 77 296 70 80 181 105 238 54z m217 19 c17 -12 18 -18 6 -57 -7
-24 -39 -94 -72 -156 -32 -61 -59 -116 -59 -121 0 -5 20 -7 45 -4 37 4 49 1
60 -14 20 -26 18 -41 -5 -64 -17 -17 -33 -20 -105 -20 l-85 0 -17 36 c-17 35
-17 37 14 127 17 51 49 131 72 179 35 77 44 88 73 97 46 13 52 13 73 -3z m348
-4 c9 -9 21 -39 28 -64 30 -112 -55 -313 -152 -364 -67 -34 -158 -4 -186 64
-37 89 34 290 123 349 25 16 81 28 145 32 14 0 33 -7 42 -17z m934 2 c13 -35
-11 -68 -64 -87 -38 -14 -55 -27 -67 -50 -19 -40 -12 -49 30 -41 26 5 34 3 34
-8 0 -25 -47 -68 -75 -68 -19 0 -29 -8 -42 -35 -9 -19 -14 -38 -10 -41 4 -4
27 -7 53 -6 40 0 46 -3 55 -26 9 -23 7 -30 -15 -48 -41 -36 -165 -43 -203 -12
-7 6 -13 22 -13 37 0 49 29 163 56 219 14 32 32 77 38 102 12 42 15 45 67 62
72 22 148 23 156 2z m277 4 c39 -17 42 -44 9 -78 -22 -24 -36 -30 -69 -30 -68
0 -84 -50 -28 -87 119 -77 15 -254 -141 -241 -67 6 -97 29 -93 72 l3 31 67 0
c50 0 72 4 84 17 17 16 15 20 -34 72 -61 64 -66 96 -29 166 39 74 155 113 231
78z m392 -3 c7 -18 -113 -384 -134 -407 -18 -22 -97 -25 -105 -5 -5 15 41 163
92 293 23 60 38 84 56 92 14 7 28 19 31 27 8 19 53 20 60 0z m658 -27 c27 -33
17 -105 -19 -135 -43 -37 -85 -25 -85 24 0 30 -11 29 -50 -3 -73 -62 -96 -184
-35 -184 13 0 35 4 48 9 32 13 55 -4 59 -44 3 -27 -2 -33 -42 -53 -62 -32
-140 -27 -178 12 -25 24 -27 33 -27 109 0 69 4 91 27 137 38 77 104 140 164
155 59 15 112 4 138 -27z m-309 -20 c-2 -24 -14 -70 -28 -103 -13 -33 -36 -95
-51 -137 -36 -101 -58 -128 -101 -128 -31 0 -35 4 -44 38 -6 20 -11 46 -11 57
-1 48 -18 47 -34 -3 -9 -28 -28 -62 -41 -76 -23 -25 -68 -35 -79 -18 -7 12 21
141 51 237 38 121 77 174 117 159 14 -6 41 -73 49 -124 3 -21 8 -16 31 35 38
83 61 105 107 105 l37 0 -3 -42z"/>
<path d="M1307 408 c-15 -34 -25 -63 -23 -65 2 -3 13 0 24 6 21 11 42 59 42
97 0 40 -16 27 -43 -38z"/>
<path d="M445 448 c-22 -69 -46 -174 -43 -196 l3 -27 47 44 c48 43 73 96 61
129 -8 21 -44 62 -55 62 -5 0 -10 -6 -13 -12z"/>
<path d="M807 492 c-20 -22 -42 -81 -34 -89 12 -11 67 56 67 81 0 31 -11 33
-33 8z"/>
<path d="M2368 402 c-67 -103 -88 -185 -52 -199 21 -8 48 26 74 95 22 59 38
162 24 162 -5 0 -26 -26 -46 -58z"/>
</g>
</svg>
